<svg xmlns="http://www.w3.org/2000/svg" xmlns:xlink="http://www.w3.org/1999/xlink" width="23" height="22.984" viewBox="0 0 23 22.984">
  <defs>
    <clipPath id="clip-path">
      <path id="Path_25038" data-name="Path 25038" d="M348.5-30a1.5,1.5,0,0,1-1.5-1.5,1.5,1.5,0,0,1,1.5-1.5,1.5,1.5,0,0,1,1.5,1.5A1.5,1.5,0,0,1,348.5-30Z" fill="none"/>
    </clipPath>
    <clipPath id="clip-path-2">
      <path id="Path_25037" data-name="Path 25037" d="M0,0H375V-792H0Z" fill="none"/>
    </clipPath>
  </defs>
  <g id="Component_2_1" data-name="Component 2 – 1" transform="translate(0.5 0.484)">
    <g id="Group_20750" data-name="Group 20750" transform="translate(0 5)">
      <path id="Path_25033" data-name="Path 25033" d="M19.25,0H2.75A2.907,2.907,0,0,0,0,2.742V14.469A2.535,2.535,0,0,0,2.539,17H19.461A2.535,2.535,0,0,0,22,14.469V2.657A2.835,2.835,0,0,0,19.25,0Z" fill="none" stroke="#d93e11" stroke-linecap="round" stroke-linejoin="round" stroke-width="1"/>
    </g>
    <g id="Group_20751" data-name="Group 20751">
      <path id="Path_25034" data-name="Path 25034" d="M17,3.82V1.989C17,.164,16.618-.362,14.422.235,12.809.674,3.372,3.372,3.372,3.372.465,4.5.022,5.464.022,7.655L0,9" fill="none" stroke="#d93e11" stroke-linejoin="round" stroke-width="1"/>
    </g>
    <g id="Group_20754" data-name="Group 20754" transform="translate(-331 45)" clip-path="url(#clip-path)">
      <g id="Group_20753" data-name="Group 20753" clip-path="url(#clip-path-2)">
        <path id="Path_25036" data-name="Path 25036" d="M342-38h13v13H342Z" fill="#d93e11"/>
      </g>
    </g>
  </g>
</svg>
